<?xml version="1.0" encoding="utf-8"?>
<svg version="1.1" xmlns:xlink="http://www.w3.org/1999/xlink" width="57px" height="24px" xmlns="http://www.w3.org/2000/svg">
  <defs>
    <mask fill="white" id="clip2">
      <path d="M 0 18.5454545454545  L 0 5.45454545454545  C 0 2.40000000000005  2.02258064516133 0  4.59677419354839 0  L 52.4032258064516 0  C 54.9774193548387 0  57 2.40000000000005  57 5.45454545454545  L 57 18.5454545454545  C 57 21.6  54.9774193548387 24  52.4032258064516 24  L 22.5241935483871 24  L 4.59677419354839 24  C 2.02258064516133 24  0 21.6  0 18.5454545454545  Z " fill-rule="evenodd" />
    </mask>
  </defs>
  <g transform="matrix(1 0 0 1 -612 -1199 )">
    <path d="M 0 18.5454545454545  L 0 5.45454545454545  C 0 2.40000000000005  2.02258064516133 0  4.59677419354839 0  L 52.4032258064516 0  C 54.9774193548387 0  57 2.40000000000005  57 5.45454545454545  L 57 18.5454545454545  C 57 21.6  54.9774193548387 24  52.4032258064516 24  L 22.5241935483871 24  L 4.59677419354839 24  C 2.02258064516133 24  0 21.6  0 18.5454545454545  Z " fill-rule="nonzero" fill="#d7d7d7" stroke="none" transform="matrix(1 0 0 1 612 1199 )" />
    <path d="M 0 18.5454545454545  L 0 5.45454545454545  C 0 2.40000000000005  2.02258064516133 0  4.59677419354839 0  L 52.4032258064516 0  C 54.9774193548387 0  57 2.40000000000005  57 5.45454545454545  L 57 18.5454545454545  C 57 21.6  54.9774193548387 24  52.4032258064516 24  L 22.5241935483871 24  L 4.59677419354839 24  C 2.02258064516133 24  0 21.6  0 18.5454545454545  Z " stroke-width="2" stroke="#797979" fill="none" transform="matrix(1 0 0 1 612 1199 )" mask="url(#clip2)" />
  </g>
</svg>