<?xml version="1.0" encoding="utf-8"?>
<svg version="1.1" xmlns:xlink="http://www.w3.org/1999/xlink" width="54px" height="24px" xmlns="http://www.w3.org/2000/svg">
  <defs>
    <mask fill="white" id="clip3">
      <path d="M 0 18.5454545454545  L 0 5.45454545454545  C 0 2.40000000000005  1.7470588235294 0  3.97058823529412 0  L 50.0294117647059 0  C 52.2529411764706 0  54 2.40000000000005  54 5.45454545454545  L 54 18.5454545454545  C 54 21.6  52.2529411764706 24  50.0294117647059 24  L 19.3838421444533 24  L 3.97058823529412 24  C 1.7470588235294 24  0 21.6  0 18.5454545454545  Z " fill-rule="evenodd" />
    </mask>
  </defs>
  <g transform="matrix(1 0 0 1 -676 -1199 )">
    <path d="M 0 18.5454545454545  L 0 5.45454545454545  C 0 2.40000000000005  1.7470588235294 0  3.97058823529412 0  L 50.0294117647059 0  C 52.2529411764706 0  54 2.40000000000005  54 5.45454545454545  L 54 18.5454545454545  C 54 21.6  52.2529411764706 24  50.0294117647059 24  L 19.3838421444533 24  L 3.97058823529412 24  C 1.7470588235294 24  0 21.6  0 18.5454545454545  Z " fill-rule="nonzero" fill="#d7d7d7" stroke="none" transform="matrix(1 0 0 1 676 1199 )" />
    <path d="M 0 18.5454545454545  L 0 5.45454545454545  C 0 2.40000000000005  1.7470588235294 0  3.97058823529412 0  L 50.0294117647059 0  C 52.2529411764706 0  54 2.40000000000005  54 5.45454545454545  L 54 18.5454545454545  C 54 21.6  52.2529411764706 24  50.0294117647059 24  L 19.3838421444533 24  L 3.97058823529412 24  C 1.7470588235294 24  0 21.6  0 18.5454545454545  Z " stroke-width="2" stroke="#797979" fill="none" transform="matrix(1 0 0 1 676 1199 )" mask="url(#clip3)" />
  </g>
</svg>