<?xml version="1.0" encoding="utf-8"?>
<svg version="1.1" xmlns:xlink="http://www.w3.org/1999/xlink" width="59px" height="22px" xmlns="http://www.w3.org/2000/svg">
  <defs>
    <mask fill="white" id="clip2">
      <path d="M 0 17  L 0 5  C 0 2.20000000000005  1.90882352941175 0  4.33823529411765 0  L 54.6617647058824 0  C 57.0911764705882 0  59 2.20000000000005  59 5  L 59 17  C 59 19.8  57.0911764705882 22  54.6617647058824 22  L 21.1786423430138 22  L 4.33823529411765 22  C 1.90882352941175 22  0 19.8  0 17  Z " fill-rule="evenodd" />
    </mask>
  </defs>
  <g transform="matrix(1 0 0 1 -350 -2498 )">
    <path d="M 0 17  L 0 5  C 0 2.20000000000005  1.90882352941175 0  4.33823529411765 0  L 54.6617647058824 0  C 57.0911764705882 0  59 2.20000000000005  59 5  L 59 17  C 59 19.8  57.0911764705882 22  54.6617647058824 22  L 21.1786423430138 22  L 4.33823529411765 22  C 1.90882352941175 22  0 19.8  0 17  Z " fill-rule="nonzero" fill="#d7d7d7" stroke="none" transform="matrix(1 0 0 1 350 2498 )" />
    <path d="M 0 17  L 0 5  C 0 2.20000000000005  1.90882352941175 0  4.33823529411765 0  L 54.6617647058824 0  C 57.0911764705882 0  59 2.20000000000005  59 5  L 59 17  C 59 19.8  57.0911764705882 22  54.6617647058824 22  L 21.1786423430138 22  L 4.33823529411765 22  C 1.90882352941175 22  0 19.8  0 17  Z " stroke-width="2" stroke="#797979" fill="none" transform="matrix(1 0 0 1 350 2498 )" mask="url(#clip2)" />
  </g>
</svg>