<?xml version="1.0" standalone="no"?><!DOCTYPE svg PUBLIC "-//W3C//DTD SVG 1.1//EN" "http://www.w3.org/Graphics/SVG/1.1/DTD/svg11.dtd"><svg t="1762155484785" class="icon" viewBox="0 0 1024 1024" version="1.1" xmlns="http://www.w3.org/2000/svg" p-id="6397" xmlns:xlink="http://www.w3.org/1999/xlink" width="200" height="200"><path d="M817.9712 819.2H215.2448c-14.4384 0-27.648-13.1584-27.6736-27.4176v-169.2928c0-27.4944 13.9264-41.8816 28.5696-28.1088l81.5104 63.5648c10.9568 9.2928 27.392 21.9392 36.5568 10.9312l93.44-112.384c9.1648-11.0336 25.6768-26.5984 36.7104-17.408l80.384 69.376c11.0592 9.1648 33.8944 25.216 42.88 14.0288l200.0384-238.848c27.008-30.5664 57.1392-23.3984 57.1392 14.0544v394.0864c0 14.2592-12.416 27.4176-26.8288 27.392z m-234.5728-293.376c-7.424 9.4208-18.3552 15.4112-30.3104 16.64a43.8784 43.8784 0 0 1-33.1008-10.0352l-90.6752-75.6736-91.0848 119.1168a44.4416 44.4416 0 0 1-63.3088 7.4496L195.4304 518.912a43.5968 43.5968 0 0 1-6.2208-61.7216 44.4928 44.4928 0 0 1 62.2848-6.1696l43.9296 35.584 91.4688-119.6032a44.3392 44.3392 0 0 1 30.3616-17.1264c12.1344-1.3056 24.1408 2.304 33.4336 10.0352l91.1616 76.0832 117.8112-146.4064-32.8448-27.008c-23.296-19.1744-18.0992-39.936 11.52-46.1312l170.7264-35.7888c29.5936-6.1952 38.7584 8.192 20.352 32l-246.016 313.216z" fill="#E64E62" p-id="6398"></path></svg>