<?xml version="1.0" encoding="utf-8"?>
<svg version="1.1" xmlns:xlink="http://www.w3.org/1999/xlink" width="62px" height="22px" xmlns="http://www.w3.org/2000/svg">
  <defs>
    <mask fill="white" id="clip3">
      <path d="M 0 17  L 0 5  C 0 2.19999999999982  2.20000000000005 0  5 0  L 25.8847736625505 0  L 57 0  C 59.8 0  62 2.19999999999982  62 5  L 62 17  C 62 19.8000000000002  59.8 22  57 22  L 5 22  C 2.20000000000005 22  0 19.8000000000002  0 17  Z " fill-rule="evenodd" />
    </mask>
  </defs>
  <g transform="matrix(1 0 0 1 -214 -3834 )">
    <path d="M 0 17  L 0 5  C 0 2.19999999999982  2.20000000000005 0  5 0  L 25.8847736625505 0  L 57 0  C 59.8 0  62 2.19999999999982  62 5  L 62 17  C 62 19.8000000000002  59.8 22  57 22  L 5 22  C 2.20000000000005 22  0 19.8000000000002  0 17  Z " fill-rule="nonzero" fill="#d7d7d7" stroke="none" transform="matrix(1 0 0 1 214 3834 )" />
    <path d="M 0 17  L 0 5  C 0 2.19999999999982  2.20000000000005 0  5 0  L 25.8847736625505 0  L 57 0  C 59.8 0  62 2.19999999999982  62 5  L 62 17  C 62 19.8000000000002  59.8 22  57 22  L 5 22  C 2.20000000000005 22  0 19.8000000000002  0 17  Z " stroke-width="2" stroke="#797979" fill="none" transform="matrix(1 0 0 1 214 3834 )" mask="url(#clip3)" />
  </g>
</svg>