<?xml version="1.0" encoding="utf-8"?>
<svg version="1.1" xmlns:xlink="http://www.w3.org/1999/xlink" width="68px" height="22px" xmlns="http://www.w3.org/2000/svg">
  <defs>
    <mask fill="white" id="clip4">
      <path d="M 0 17  L 0 5  C 0 2.20000000000005  2.19999999999999 0  5 0  L 63 0  C 65.8 0  68 2.20000000000005  68 5  L 68 17  C 68 19.8  65.8 22  63 22  L 24.4092827004227 22  L 5 22  C 2.19999999999999 22  0 19.8  0 17  Z " fill-rule="evenodd" />
    </mask>
  </defs>
  <g transform="matrix(1 0 0 1 -304 -3068 )">
    <path d="M 0 17  L 0 5  C 0 2.20000000000005  2.19999999999999 0  5 0  L 63 0  C 65.8 0  68 2.20000000000005  68 5  L 68 17  C 68 19.8  65.8 22  63 22  L 24.4092827004227 22  L 5 22  C 2.19999999999999 22  0 19.8  0 17  Z " fill-rule="nonzero" fill="#d7d7d7" stroke="none" transform="matrix(1 0 0 1 304 3068 )" />
    <path d="M 0 17  L 0 5  C 0 2.20000000000005  2.19999999999999 0  5 0  L 63 0  C 65.8 0  68 2.20000000000005  68 5  L 68 17  C 68 19.8  65.8 22  63 22  L 24.4092827004227 22  L 5 22  C 2.19999999999999 22  0 19.8  0 17  Z " stroke-width="2" stroke="#797979" fill="none" transform="matrix(1 0 0 1 304 3068 )" mask="url(#clip4)" />
  </g>
</svg>