<?xml version="1.0" encoding="utf-8"?>
<svg version="1.1" xmlns:xlink="http://www.w3.org/1999/xlink" width="46px" height="22px" xmlns="http://www.w3.org/2000/svg">
  <defs>
    <mask fill="white" id="clip4">
      <path d="M 0 17  L 0 5  C 0 2.19999999999982  1.48823529411766 0  3.38235294117658 0  L 30.3333333333333 0  L 42.6176470588234 0  C 44.5117647058823 0  46 2.19999999999982  46 5  L 46 17  C 46 19.8000000000002  44.5117647058823 22  42.6176470588234 22  L 16.5121618267565 22  L 3.38235294117658 22  C 1.48823529411766 22  0 19.8000000000002  0 17  Z " fill-rule="evenodd" />
    </mask>
  </defs>
  <g transform="matrix(1 0 0 1 -1210 -4327 )">
    <path d="M 0 17  L 0 5  C 0 2.19999999999982  1.48823529411766 0  3.38235294117658 0  L 30.3333333333333 0  L 42.6176470588234 0  C 44.5117647058823 0  46 2.19999999999982  46 5  L 46 17  C 46 19.8000000000002  44.5117647058823 22  42.6176470588234 22  L 16.5121618267565 22  L 3.38235294117658 22  C 1.48823529411766 22  0 19.8000000000002  0 17  Z " fill-rule="nonzero" fill="#d7d7d7" stroke="none" transform="matrix(1 0 0 1 1210 4327 )" />
    <path d="M 0 17  L 0 5  C 0 2.19999999999982  1.48823529411766 0  3.38235294117658 0  L 30.3333333333333 0  L 42.6176470588234 0  C 44.5117647058823 0  46 2.19999999999982  46 5  L 46 17  C 46 19.8000000000002  44.5117647058823 22  42.6176470588234 22  L 16.5121618267565 22  L 3.38235294117658 22  C 1.48823529411766 22  0 19.8000000000002  0 17  Z " stroke-width="2" stroke="#797979" fill="none" transform="matrix(1 0 0 1 1210 4327 )" mask="url(#clip4)" />
  </g>
</svg>