<?xml version="1.0" standalone="no"?><!DOCTYPE svg PUBLIC "-//W3C//DTD SVG 1.1//EN" "http://www.w3.org/Graphics/SVG/1.1/DTD/svg11.dtd"><svg t="1764313048672" class="icon" viewBox="0 0 1024 1024" version="1.1" xmlns="http://www.w3.org/2000/svg" p-id="4793" xmlns:xlink="http://www.w3.org/1999/xlink" width="200" height="200"><path d="M410.882359 26.903266c-15.700967 50.217495-58.451969 140.455389-174.715923 260.132596-200.57132 206.715177-227.152033 539.72074 81.02211 703.471586 25.300743 13.439686 46.42025 5.162546 62.291879-11.4344 52.478775-54.782722 75.262244-135.164846 68.435737-241.061042-1.919955-29.183319 11.093074-36.777809 36.86314-16.810274 73.086295 56.57468 120.786515 143.740646 120.786515 237.43446 0 31.871256 12.757036 48.724196 42.495008 42.964331 196.518081-38.100444 436.000493-319.864536 177.915849-732.441577-15.444973-20.99151-38.271107-20.99151-37.887116 7.850484 0.426657 35.412507-3.626582 70.739683-12.117051 105.128213-5.845197 23.892776-28.330006 23.55145-33.620549 0-32.169916-143.313989-121.597163-265.12448-268.324405-365.644801-39.593743-27.092701-53.972074-18.772895-63.145194 10.453089z" fill="#F4420A" p-id="4794"></path></svg>