<?xml version="1.0" encoding="utf-8"?>
<svg version="1.1" xmlns:xlink="http://www.w3.org/1999/xlink" width="46px" height="22px" xmlns="http://www.w3.org/2000/svg">
  <defs>
    <mask fill="white" id="clip1">
      <path d="M 0 17  L 0 5  C 0 2.20000000000005  1.48823529411764 0  3.38235294117647 0  L 42.6176470588235 0  C 44.5117647058824 0  46 2.20000000000005  46 5  L 46 17  C 46 19.8  44.5117647058824 22  42.6176470588235 22  L 16.5121618267565 22  L 3.38235294117647 22  C 1.48823529411764 22  0 19.8  0 17  Z " fill-rule="evenodd" />
    </mask>
  </defs>
  <g transform="matrix(1 0 0 1 -231 -1199 )">
    <path d="M 0 17  L 0 5  C 0 2.20000000000005  1.48823529411764 0  3.38235294117647 0  L 42.6176470588235 0  C 44.5117647058824 0  46 2.20000000000005  46 5  L 46 17  C 46 19.8  44.5117647058824 22  42.6176470588235 22  L 16.5121618267565 22  L 3.38235294117647 22  C 1.48823529411764 22  0 19.8  0 17  Z " fill-rule="nonzero" fill="#d7d7d7" stroke="none" transform="matrix(1 0 0 1 231 1199 )" />
    <path d="M 0 17  L 0 5  C 0 2.20000000000005  1.48823529411764 0  3.38235294117647 0  L 42.6176470588235 0  C 44.5117647058824 0  46 2.20000000000005  46 5  L 46 17  C 46 19.8  44.5117647058824 22  42.6176470588235 22  L 16.5121618267565 22  L 3.38235294117647 22  C 1.48823529411764 22  0 19.8  0 17  Z " stroke-width="2" stroke="#797979" fill="none" transform="matrix(1 0 0 1 231 1199 )" mask="url(#clip1)" />
  </g>
</svg>